<?xml version="1.0" encoding="utf-8"?>
<!-- Generator: Adobe Illustrator 19.2.0, SVG Export Plug-In . SVG Version: 6.00 Build 0)  -->
<svg version="1.1" id="Layer_1" xmlns="http://www.w3.org/2000/svg" xmlns:xlink="http://www.w3.org/1999/xlink" x="0px" y="0px"
	 viewBox="0 0 25 30.2" style="enable-background:new 0 0 25 30.2;" xml:space="preserve">
<style type="text/css">
	.st0{fill:#4DAF4E;}
	.st1{fill:#FFFFFF;}
	.st2{fill:#1D75BB;}
	.st3{fill:#F15B2A;}
</style>
<g>
	<polygon class="st0" points="6.9,11.6 6.9,19.8 10,19.8 10,14.8 14.9,14.8 14.9,19.8 18,19.8 18,11.5 12.5,7.5 	"/>
	<path class="st0" d="M20,0H5C2.2,0,0,2.2,0,5v15.6c0,2.8,2.2,5,5,5h3l-0.1,0.1l4.5,4.5l4.5-4.5l-0.1-0.1H20c2.8,0,5-2.2,5-5V5
		C25,2.2,22.8,0,20,0z M20.4,13.3l-1-0.7v7.3v1.4H18h-5.6l0,0l0,0H6.9H5.4v-1.4v-7.3l-1,0.7l-1.5-2l9.5-7.1l3.6,2.6V4.4h2.4v4.2
		l3.5,2.6L20.4,13.3z"/>
	<path class="st1" d="M18.5,4.4h-2.4v2.4l-3.6-2.6L3,11.2l1.5,2l1-0.7v7.3v1.4h1.4h5.6l0,0l0,0H18h1.4v-1.4v-7.3l1,0.7l1.6-2
		l-3.5-2.6V4.4z M18,19.8h-3v-5H10v5H6.9v-8.3l5.6-4.1l5.5,4V19.8z"/>
</g>
<g>
	<polygon class="st2" points="40.6,11.6 40.6,19.8 43.8,19.8 43.8,14.8 48.7,14.8 48.7,19.8 51.7,19.8 51.7,11.5 46.2,7.5 	"/>
	<path class="st2" d="M53.8,0h-15c-2.8,0-5,2.2-5,5v15.6c0,2.8,2.2,5,5,5h3l-0.1,0.1l4.5,4.5l4.5-4.5l-0.1-0.1h3.1c2.8,0,5-2.2,5-5
		V5C58.8,2.2,56.5,0,53.8,0z M54.2,13.3l-1-0.7v7.3v1.4h-1.4h-5.6l0,0l0,0h-5.6h-1.4v-1.4v-7.3l-1,0.7l-1.5-2l9.5-7.1l3.6,2.6V4.4
		h2.4v4.2l3.5,2.6L54.2,13.3z"/>
	<path class="st1" d="M52.3,4.4h-2.4v2.4l-3.6-2.6l-9.5,7.1l1.5,2l1-0.7v7.3v1.4h1.4h5.6l0,0l0,0h5.6h1.4v-1.4v-7.3l1,0.7l1.6-2
		l-3.5-2.6V4.4z M51.7,19.8h-3v-5h-4.9v5h-3.2v-8.3l5.6-4.1l5.5,4V19.8z"/>
</g>
<g>
	<polygon class="st3" points="73.4,11.6 73.4,19.8 76.5,19.8 76.5,14.8 81.4,14.8 81.4,19.8 84.5,19.8 84.5,11.5 79,7.5 	"/>
	<path class="st3" d="M86.5,0h-15c-2.8,0-5,2.2-5,5v15.6c0,2.8,2.2,5,5,5h3l-0.1,0.1l4.5,4.5l4.5-4.5l-0.1-0.1h3.1c2.8,0,5-2.2,5-5
		V5C91.5,2.2,89.2,0,86.5,0z M86.9,13.3l-1-0.7v7.3v1.4h-1.4h-5.6l0,0l0,0h-5.6h-1.4v-1.4v-7.3l-1,0.7l-1.5-2L79,4.2l3.6,2.6V4.4H85
		v4.2l3.5,2.6L86.9,13.3z"/>
	<path class="st1" d="M85,4.4h-2.4v2.4L79,4.2l-9.5,7.1l1.5,2l1-0.7v7.3v1.4h1.4h5.6l0,0l0,0h5.6h1.4v-1.4v-7.3l1,0.7l1.6-2L85,8.6
		V4.4z M84.5,19.8h-3v-5h-4.9v5h-3.2v-8.3L79,7.5l5.5,4V19.8z"/>
</g>
</svg>
